<?xml version="1.0" encoding="UTF-8"?>
<mxfile host="app.diagrams.net" modified="2025&&#35;45;10&&#35;45;20T07&&#35;58;41&&#35;58;17.100Z" agent="MCP Flowchart Server" etag="1" version="22.1.16" type="device">
  <diagram name="Flowchart" id="44sgin9yf">
    <mxGraphModel dx="1422" dy="794" grid="1" gridSize="10" guides="1" tooltips="1" connect="1" arrows="1" fold="1" page="1" pageScale="1" pageWidth="1169" pageHeight="827" math="0" shadow="0">
  <root>
    <mxCell id="0" />
    <mxCell id="1" parent="0" />
    <mxCell id="start" value="Start" style="ellipse&&#35;59;whiteSpace&&#35;61;wrap&&#35;59;html&&#35;61;1&&#35;59;aspect&&#35;61;fixed&&#35;59;fillColor&&#35;61;&#35;d5e8d4&&#35;59;strokeColor&&#35;61;&#35;82b366&&#35;59;" vertex="1" parent="1">
      <mxGeometry x="-525" y="0" width="120" height="60" as="geometry" />
    </mxCell>
    <mxCell id="init" value="count &&#35;61; 1" style="rounded&&#35;61;1&&#35;59;whiteSpace&&#35;61;wrap&&#35;59;html&&#35;61;1&&#35;59;fillColor&&#35;61;&#35;dae8fc&&#35;59;strokeColor&&#35;61;&#35;6c8ebf&&#35;59;" vertex="1" parent="1">
      <mxGeometry x="-525" y="140" width="120" height="60" as="geometry" />
    </mxCell>
    <mxCell id="decision" value="count &lt&&#35;59;&&#35;61; 5&&#35;63;" style="rhombus&&#35;59;whiteSpace&&#35;61;wrap&&#35;59;html&&#35;61;1&&#35;59;fillColor&&#35;61;&#35;fff2cc&&#35;59;strokeColor&&#35;61;&#35;d6b656&&#35;59;" vertex="1" parent="1">
      <mxGeometry x="-525" y="320" width="120" height="60" as="geometry" />
    </mxCell>
    <mxCell id="increment" value="count &&#35;43;&&#35;61; 1" style="rounded&&#35;61;1&&#35;59;whiteSpace&&#35;61;wrap&&#35;59;html&&#35;61;1&&#35;59;fillColor&&#35;61;&#35;dae8fc&&#35;59;strokeColor&&#35;61;&#35;6c8ebf&&#35;59;" vertex="1" parent="1">
      <mxGeometry x="-660" y="420" width="120" height="60" as="geometry" />
    </mxCell>
    <mxCell id="end" value="End" style="ellipse&&#35;59;whiteSpace&&#35;61;wrap&&#35;59;html&&#35;61;1&&#35;59;aspect&&#35;61;fixed&&#35;59;fillColor&&#35;61;&#35;f8cecc&&#35;59;strokeColor&&#35;61;&#35;b85450&&#35;59;" vertex="1" parent="1">
      <mxGeometry x="-390" y="420" width="120" height="60" as="geometry" />
    </mxCell>
    <mxCell id="edge_0" style="edgeStyle&&#35;61;orthogonalEdgeStyle&&#35;59;rounded&&#35;61;0&&#35;59;orthogonalLoop&&#35;61;1&&#35;59;jettySize&&#35;61;auto&&#35;59;html&&#35;61;1&&#35;59;endArrow&&#35;61;classic&&#35;59;startArrow&&#35;61;none&&#35;59;" edge="1" parent="1" source="start" target="init">
      <mxGeometry relative="1" as="geometry" />
    </mxCell>
    <mxCell id="edge_1" style="edgeStyle&&#35;61;orthogonalEdgeStyle&&#35;59;rounded&&#35;61;0&&#35;59;orthogonalLoop&&#35;61;1&&#35;59;jettySize&&#35;61;auto&&#35;59;html&&#35;61;1&&#35;59;endArrow&&#35;61;classic&&#35;59;startArrow&&#35;61;none&&#35;59;" edge="1" parent="1" source="init" target="decision">
      <mxGeometry relative="1" as="geometry" />
    </mxCell>
    <mxCell id="edge_2" value="Yes" style="edgeStyle&&#35;61;orthogonalEdgeStyle&&#35;59;rounded&&#35;61;0&&#35;59;orthogonalLoop&&#35;61;1&&#35;59;jettySize&&#35;61;auto&&#35;59;html&&#35;61;1&&#35;59;endArrow&&#35;61;classic&&#35;59;startArrow&&#35;61;none&&#35;59;" edge="1" parent="1" source="decision" target="increment">
      <mxGeometry relative="1" as="geometry" />
    </mxCell>
    <mxCell id="edge_3" value="No" style="edgeStyle&&#35;61;orthogonalEdgeStyle&&#35;59;rounded&&#35;61;0&&#35;59;orthogonalLoop&&#35;61;1&&#35;59;jettySize&&#35;61;auto&&#35;59;html&&#35;61;1&&#35;59;endArrow&&#35;61;classic&&#35;59;startArrow&&#35;61;none&&#35;59;" edge="1" parent="1" source="decision" target="end">
      <mxGeometry relative="1" as="geometry" />
    </mxCell>
    <mxCell id="edge_4" style="edgeStyle&&#35;61;orthogonalEdgeStyle&&#35;59;rounded&&#35;61;0&&#35;59;orthogonalLoop&&#35;61;1&&#35;59;jettySize&&#35;61;auto&&#35;59;html&&#35;61;1&&#35;59;endArrow&&#35;61;classic&&#35;59;startArrow&&#35;61;none&&#35;59;" edge="1" parent="1" source="increment" target="decision">
      <mxGeometry relative="1" as="geometry" />
    </mxCell>
  </root>
</mxGraphModel>
  </diagram>
</mxfile>